<svg id="Capa_1" enable-background="new 0 0 511.994 511.994" height="512" viewBox="0 0 511.994 511.994" width="512" xmlns="http://www.w3.org/2000/svg"><path d="m334.482 42.904c-35.552-10.401-64.004-11.312-86.572-7.195-8.282-5.847-25.456-16.058-42.122-14.633l.101-2.053s-19.539-11.523-43.755-11.523c-31.397 0-79.994 14.529-88.177 80.161-7.914 63.474 35.738 178.349 35.738 229.462 0 56.447-21.042 73.815-21.042 73.815s68.137 16.7 100.202-26.72v100.202h120.242v-57.388c54.365-7.798 96.194-54.428 96.194-110.951v-96.676c14.915 8.334 26.228 20.807 32.065 40.563-.001 0 22.712-160.323-102.874-197.064z" fill="#fff"/><path d="m162.135 7.5c-31.397 0-79.994 14.529-88.177 80.161-7.914 63.474 35.738 178.349 35.738 229.462 0 56.447-21.042 73.815-21.042 73.815s68.137 16.7 100.202-26.72l17.034-345.195s-19.54-11.523-43.755-11.523z" fill="#0096d2"/><path d="m88.654 390.938s67.445 16.487 99.701-26.138v-25.633l-16.533 1.503c-.001 0-31.731 42.92-83.168 50.268z" fill="#00d2dc"/><path d="m205.89 19.023s-19.539-11.523-43.755-11.523c-21.801 0-51.869 7.052-70.967 33.307 37.192-23.583 80.274 1.359 89.671 8.778l24.411-17.614z" fill="#00d2dc"/><path d="m198.208 22.53c-42.419 14.028-29.393 65.632-29.393 65.632s4.008 15.531 12.024 23.547l65.632-76.654s-23.193-20.816-48.263-12.525z" fill="#00d2dc"/><path d="m293.065 408.306c-75.262 0-136.274-61.012-136.274-136.274v-144.29h248.5v168.339c0 61.98-50.245 112.225-112.226 112.225z" fill="#fff"/><circle cx="256.993" cy="260.008" fill="#00d2dc" r="20.04"/><circle cx="361.202" cy="260.008" fill="#00d2dc" r="20.04"/><path d="m156.791 127.742v96.194 48.097c0 75.262 61.012 136.274 136.274 136.274.011 0 .021-.001.032-.001-42.938-22.938-72.177-68.159-72.177-120.24 0-17.048 3.051-33.936 8.909-49.945 3.942-10.773 7.37-21.895 9.982-33.169 2.07-8.938 10.972-14.372 19.837-12.01 21.923 5.841 44.108 8.725 65.064 11.449 40.889 5.319 66.793 9.575 80.58 25.49v-102.139z" fill="#beebeb"/><path d="m334.482 42.904c-103.806-30.368-147.124 20.12-159.95 40.672-3.379 5.414-8.182 9.743-13.659 13.019-77.884 46.587-11.454 155.164-12.098 238.898 0 0 68.551-90.81 71.98-184.508 80.142 48.021 193.005 9.118 216.601 88.983-.001 0 22.712-160.323-102.874-197.064z" fill="#00d2dc"/><path d="m334.482 42.904c-23.462-6.864-43.832-9.596-61.458-9.477-15.879.107-18.059 22.93-2.469 25.943 4.555.88 9.385 1.77 14.487 2.656 44.37 7.709 98.297 24.37 137.483 60.142-14.332-33.854-40.592-65.382-88.043-79.264z" fill="#beebeb"/><path d="m437.355 239.968s6.278-44.486-6.111-91.959c-68.038-37.635-136.843-45.651-155.547-42.311-13.034 2.327-19.573 12.617-14.586 24.882 5.51 13.551 14.758 29.416 30.275 44.497 64.587 11.515 128.829 6.878 145.969 64.891z" fill="#beebeb"/><path d="m172.823 87.661s-.948.477-2.487 1.266c-2.762 2.979-5.947 5.565-9.463 7.668-59.207 35.415-35.027 106.65-20.303 175.566 36.792-29.406 64.317-128.387 64.317-128.387-32.064-24.048-32.064-56.113-32.064-56.113z" fill="#0096d2"/><path d="m293.065 408.306c-41.829 0-79.212-18.886-104.21-48.55v120.695h56.113v-35.135c0-10.026 9.09-17.58 18.941-15.715 9.467 1.792 19.206 2.754 29.155 2.754 5.433 0 10.764-.408 16.032-1.029v-24.294c-5.248.752-10.573 1.274-16.031 1.274z" fill="#beebeb"/><path d="m325.402 435.031-.286-.256c.253.834.409 1.671.35 2.508-.85 12.141-35.001 19.64-76.28 16.75-41.278-2.889-74.052-15.074-73.202-27.215.034-.49.28-.948.421-1.422l-.469.41s-10.995 41.193-11.318 45.822c-1.004 14.338 37.701 28.728 86.45 32.14 48.749 3.413 89.082-5.444 90.086-19.782.391-5.566-15.752-48.955-15.752-48.955z" fill="#00d2dc"/><path d="m230.65 452.019c-32.098-4.693-55.382-14.951-54.665-25.201.034-.49.28-.948.421-1.422l-.469.41s-10.995 41.193-11.318 45.822c-.977 13.957 35.704 27.933 82.617 31.815z" fill="#0096d2"/><g fill="#283c64"><path d="m440.332 153.572c-13.744-61.274-49.618-102.031-103.744-117.865-32.211-9.423-61.372-12.05-87.118-7.899-5.324-4.191-20.533-14.704-38.94-14.726-.276-.181-.553-.356-.83-.52-.87-.512-21.602-12.562-47.565-12.562-12.247 0-35.946 2.183-57.063 16.802-21.669 15.002-34.642 38.53-38.557 69.931-4.753 38.119 8.294 93.504 19.804 142.369 8.165 34.661 15.877 67.399 15.877 88.021 0 50.199-17.414 67.183-18.364 68.068-2.24 1.766-3.198 4.584-2.603 7.379.599 2.815 2.844 4.967 5.639 5.652.643.158 13.999 3.374 31.834 3.374 2.729 0 5.565-.076 8.474-.249 21.832-1.3 40.209-7.723 54.179-18.75v28.906c-8.575 4.285-11.336 9.163-12.385 13.645-3.52 13.161-11.189 41.57-11.514 46.207-.756 10.795 9.084 20.07 29.247 27.566 16.855 6.267 39.406 10.646 63.497 12.333 6.931.485 13.951.738 20.893.738 38.919-.001 75.149-7.942 76.506-27.325.33-4.706-16.269-52.115-16.705-53.127-2.115-4.901-6.77-9.265-14.298-13.258v-4.943c22.146-4.61 42.666-15.599 59.422-32.117 23.369-23.037 36.772-54.928 36.772-87.497v-79.95c7.821 6.961 13.756 16.08 17.372 28.317 1 3.384 4.219 5.622 7.742 5.355 3.519-.258 6.382-2.935 6.876-6.428.241-1.691 5.754-41.959-4.448-87.447zm-166.36-112.681c16.723 0 36.084 2.682 58.404 9.212 26.729 7.82 48.186 21.986 64.257 42.309-13.836-9.848-30.481-18.053-49.711-24.401-34.216-11.294-64.263-12.832-65.525-12.892-4.146-.209-7.651 2.998-7.848 7.136s2.999 7.651 7.136 7.848c1.144.054 114.552 6.264 142.787 77.82.756 2.793 1.475 5.628 2.132 8.53 1.115 4.926 2.027 9.802 2.776 14.578-23.457-17.522-64.808-25.9-136.132-37.333-28.75-4.609-50.869-16.927-65.743-36.614-10.436-13.812-15.216-28.956-16.376-38.969 14.94-9.617 35.663-17.224 63.843-17.224zm-44.888-8.14c-4.02 1.327-7.945 2.839-11.763 4.551-20.892 9.37-34.625 22.861-42.895 33.411 0-2.84.166-5.909.607-9.069 2.287-16.382 10.877-27.146 25.53-31.993 10.469-3.461 20.837-.579 28.521 3.1zm-66.949-17.751c9.384 0 18.073 1.935 24.936 4.142-7.219 3.779-13.12 8.911-17.572 15.327-10.094-4.12-31.405-11.145-52.474-7.553 16.887-10.305 35.28-11.916 45.11-11.916zm-76.897 137.209c-3.979-23.679-6.022-45.842-3.856-63.453 3.753-21.816 12.476-36.325 25.933-43.118 19.329-9.758 44.345-2.053 55.522 2.347-1.196 3.619-2.088 7.482-2.661 11.585-1.095 7.844-.815 15.202-.232 20.719-12.294.312-33.629 3.724-50.985 21.389-12.106 12.322-20.012 29.222-23.721 50.531zm16.887 78.572c-9.442-56.183-3.39-97.138 17.392-118.445 8.607-8.825 18.671-13.159 27.371-15.237-45.583 35.737-31.84 96.175-18.519 154.746 3.229 14.196 6.512 28.633 8.959 42.773-3.692 27.75-14.287 48.906-24.481 63.527 2.889-12.074 4.349-25.792 4.349-41.022 0-21.288-7.163-52.722-15.071-86.342zm24.543 155.57c-6.324.397-12.281.26-17.488-.102 9.137-9.032 22.629-25.173 32.331-48.98.594 2.43 2.36 4.459 4.8 5.308.809.281 1.64.417 2.463.417 2.268 0 4.469-1.031 5.918-2.891.292-.374 3-3.87 7.217-9.844 5.075 11.475 11.557 22.093 19.22 31.653-11.923 14.689-30.219 22.919-54.461 24.439zm28.473-72.795c-1.21-11.734-3.285-23.727-5.724-35.744 40.052-44.794 54.575-102.903 58.952-125.719 1.707 1.188 3.428 2.339 5.166 3.442 2.579 58.93-37.473 126.812-58.394 158.021zm167.347 138.469c5.134 14.46 9.616 28.144 10.108 31.773-.455 1.309-4.841 5.889-21.016 9.441-16.204 3.558-37.632 4.643-60.332 3.054-22.701-1.589-43.768-5.649-59.317-11.43-16.331-6.072-19.582-11.452-19.518-12.379.25-2.271 3.268-14.518 6.88-28.463 3.915 2.65 8.885 5.112 14.954 7.369 14.373 5.343 33.581 9.077 54.086 10.512 6.062.425 12.038.634 17.837.634 13.821 0 26.636-1.191 37.187-3.508 8.068-1.771 14.45-4.112 19.131-7.003zm-126.132-15.919v-57.95c25.375 23.189 58.815 37.123 94.613 37.636.57.008 1.136.012 1.705.012 2.991 0 5.967-.115 8.924-.339v28.583c-11.297 2.684-28.705 4.537-52.216 2.891-24.802-1.736-42.335-6.381-53.026-10.833zm169.133-65.565c-20.193 19.906-46.569 30.65-74.306 30.252-53.545-.768-101.19-35.083-119.12-85.56 6.379-9.842 13.859-22.155 21.289-36.158 8.44-15.909 15.375-31.221 20.798-45.899 7.968-2.866 38.82-13.097 70.679-12.166 4.174.136 7.596-3.136 7.717-7.276.122-4.141-3.136-7.595-7.276-7.717-25.929-.765-50.619 5.064-65.214 9.428 5.404-18.288 8.275-35.484 8.576-51.49 31.453 15.344 66.336 19.879 98.214 24.024 27.772 3.611 52.335 6.82 70.945 15.91v11.615c-1.664-.691-3.498-1.395-5.53-2.094-15.029-5.168-33.102-7.653-53.699-7.396-4.142.052-7.457 3.453-7.405 7.594.053 4.142 3.498 7.464 7.594 7.405 33.897-.421 52.371 7.466 59.04 11.091v61.622c0 28.58-11.774 56.578-32.302 76.815zm-36.709-197.436c-44.927-5.841-91.384-11.881-126.744-45.458-3.004-2.853-7.752-2.729-10.603.274-2.853 3.004-2.729 7.751.274 10.603 1.075 1.021 2.162 2.01 3.255 2.985-1.314 8.655-11.735 69.811-49.537 117.747-.804-3.59-1.618-7.172-2.429-10.738-7.051-31.005-13.711-60.29-12.333-85.978 1.481-27.585 12.304-46.495 34.06-59.509 6.89-4.121 12.331-9.331 16.171-15.485 3.312-5.307 8.447-12.209 15.864-19.07 2.637 11.315 8.174 24.938 17.778 37.649 17.044 22.558 43.095 37.213 75.337 42.382 83.944 13.457 125.668 22.563 141.093 46.878.342 5.855.474 11.343.468 16.306-22.001-28.1-61.415-33.225-102.654-38.586z"/><path d="m313.37 313.267c8.067 0 15.589-2.904 21.179-8.178 3.013-2.843 3.151-7.589.308-10.603-2.842-3.013-7.588-3.152-10.602-.308-2.754 2.599-6.722 4.089-10.885 4.089s-8.131-1.491-10.886-4.089c-3.013-2.842-7.76-2.704-10.602.309s-2.704 7.76.309 10.602c5.591 5.274 13.112 8.178 21.179 8.178z"/><path d="m322.358 353.035c-3.972.736-7.895 1.109-11.66 1.109-3.647 0-7.621-.349-11.812-1.038-4.086-.67-7.945 2.097-8.617 6.185-.671 4.087 2.097 7.945 6.185 8.617 4.992.82 9.784 1.236 14.244 1.236 4.679 0 9.521-.458 14.392-1.36 4.073-.754 6.763-4.668 6.008-8.741s-4.667-6.762-8.74-6.008z"/><path d="m353.875 324.601c-1.575-3.832-5.958-5.66-9.789-4.084-2.134.878-3.645 2.627-4.293 4.667-7.513 1.821-18.048 2.881-29.094 2.881-11.646 0-22.721-1.18-30.288-3.186-.691-2.046-2.255-3.78-4.43-4.611-3.871-1.481-8.205.459-9.683 4.329l-2.4 6.281c-1.479 3.87.459 8.205 4.329 9.683.881.337 1.786.496 2.676.496 1.826 0 3.583-.681 4.944-1.874 8.955 2.475 21.475 3.881 34.853 3.881 13.223 0 25.605-1.375 34.538-3.797 1.178.728 2.541 1.135 3.945 1.135.95 0 1.916-.182 2.849-.565 3.831-1.575 5.66-5.958 4.084-9.789z"/><path d="m284.533 260.008c0-4.142-3.358-7.5-7.5-7.5s-7.5 3.358-7.5 7.5c0 6.915-5.625 12.54-12.54 12.54s-12.541-5.625-12.541-12.54 5.625-12.541 12.541-12.541c4.142 0 7.5-3.358 7.5-7.5s-3.358-7.5-7.5-7.5c-15.186 0-27.541 12.354-27.541 27.541 0 15.186 12.354 27.54 27.541 27.54 15.185 0 27.54-12.354 27.54-27.54z"/><path d="m381.243 252.508c-4.142 0-7.5 3.358-7.5 7.5 0 6.915-5.625 12.54-12.541 12.54s-12.541-5.625-12.541-12.54 5.625-12.541 12.541-12.541c4.142 0 7.5-3.358 7.5-7.5s-3.358-7.5-7.5-7.5c-15.186 0-27.541 12.354-27.541 27.541 0 15.186 12.354 27.54 27.541 27.54s27.541-12.354 27.541-27.54c0-4.142-3.358-7.5-7.5-7.5z"/></g></svg>