<svg id="Capa_1" enable-background="new 0 0 512.002 512.002" height="512" viewBox="0 0 512.002 512.002" width="512" xmlns="http://www.w3.org/2000/svg"><path d="m368.227 151.79h-16.032v56.113c16.032 0 32.065-8.016 32.065-8.016s-16.033-24.048-16.033-48.097z" fill="#beebeb"/><path d="m63.614 151.79c0 24.048-16.032 40.081-16.032 40.081s8.016 8.016 24.048 16.032l8.016 4.008v52.105s0 32.065-8.016 48.097c0 0 8.016 8.016 48.097 16.032v-96.194l48.097-80.161z" fill="#0096d2"/><path d="m272.033 7.5h-112.226c-53.126 0-96.194 43.067-96.194 96.194v48.097h304.613v-48.097c.001-53.127-43.066-96.194-96.193-96.194z" fill="#beebeb"/><path d="m188.309 7.5h-24.939c-55.094 0-99.756 43.067-99.756 96.194v48.097h224.452v-48.097c0-53.127-44.663-96.194-99.757-96.194z" fill="#00d2dc"/><circle cx="280.049" cy="87.661" fill="#0096d2" r="24.048"/><path d="m127.743 304.097h136.274v160.323h-136.274z" fill="#beebeb"/><path d="m239.969 416.323c-9.956 0-19.692-.965-29.148-2.758-9.854-1.868-18.949 5.685-18.949 15.714v19.108h72.145v-34.32c-7.821 1.4-15.83 2.256-24.048 2.256z" fill="#fff"/><path d="m279.423 428.723-.312-.279c.276.91.446 1.823.382 2.736-.927 13.243-38.179 21.423-83.206 18.271s-80.776-16.443-79.849-29.686c.037-.534.306-1.034.459-1.551l-.511.448s-11.993 44.933-12.346 49.983c-1.095 15.64 41.125 31.336 94.3 35.059 53.176 3.723 97.171-5.938 98.266-21.578.425-6.074-17.183-53.403-17.183-53.403z" fill="#00d2dc"/><path d="m176.067 447.253c-35.012-5.119-60.411-16.308-59.628-27.489.037-.534.306-1.034.459-1.551l-.511.448s-11.993 44.933-12.346 49.983c-1.066 15.224 38.946 30.469 90.119 34.704z" fill="#0096d2"/><path d="m167.824 151.79-32.065 48.097h-32.065v56.113c0 75.262 61.012 136.274 136.274 136.274 61.981 0 112.226-50.245 112.226-112.226v-128.258z" fill="#fff"/><path d="m352.195 175.839v-24.049h-184.371l-40.081 48.097h-30.686c-16.747 0-31.702 12.243-33.292 28.914-1.824 19.124 13.165 35.215 31.914 35.215h8.396c3.896 66.83 55.808 120.763 121.827 127.534-35.087-24.654-58.077-65.361-58.077-111.502v-72.145c0-17.709 14.356-32.065 32.065-32.065h152.305z" fill="#beebeb"/><path d="m128.001 151.5h40s-13.667 30.199-36.667 48.387h-28s19-25.051 24.667-48.387z" fill="#00d2dc"/><g fill="#283c64"><path d="m235.875 267.502c-2.65 3.183-2.218 7.912.965 10.563 5.538 4.61 12.936 7.149 20.831 7.149 7.896 0 15.294-2.539 20.832-7.149 3.183-2.651 3.615-7.38.964-10.563-2.65-3.183-7.38-3.614-10.563-.964-2.806 2.337-6.9 3.677-11.233 3.677s-8.427-1.34-11.233-3.677c-3.184-2.652-7.913-2.219-10.563.964z"/><path d="m189.966 236.301c1.59-2.234 4.994-5.981 9.922-5.981s8.332 3.748 9.923 5.982c2.402 3.374 7.085 4.162 10.459 1.759s4.162-7.085 1.759-10.459c-5.557-7.805-13.627-12.282-22.142-12.282s-16.585 4.477-22.142 12.282c-2.402 3.374-1.614 8.057 1.76 10.459 1.319.939 2.838 1.391 4.343 1.391 2.345 0 4.655-1.096 6.118-3.151z"/><path d="m312.114 215.32c-8.514 0-16.584 4.477-22.142 12.282-2.403 3.374-1.615 8.057 1.759 10.459s8.057 1.615 10.459-1.759c1.591-2.234 4.995-5.982 9.923-5.982s8.332 3.748 9.922 5.981c1.463 2.055 3.772 3.151 6.116 3.151 1.505 0 3.024-.452 4.343-1.391 3.375-2.402 4.163-7.085 1.76-10.459-5.555-7.806-13.626-12.282-22.14-12.282z"/><path d="m233.112 190.149c4.092-.64 6.891-4.477 6.25-8.569s-4.478-6.889-8.569-6.25c-36.001 5.634-57.434 16.293-58.329 16.745-3.699 1.864-5.186 6.374-3.322 10.073 1.319 2.617 3.96 4.126 6.703 4.126 1.135 0 2.287-.258 3.37-.804.199-.101 20.2-10.047 53.897-15.321z"/><path d="m319.928 302.385-12.635-10.719c-3.159-2.68-7.892-2.291-10.571.867-1.208 1.424-1.787 3.167-1.775 4.898h-84.547c.011-1.731-.567-3.474-1.775-4.898-2.679-3.158-7.411-3.547-10.571-.867l-12.635 10.719c-3.159 2.68-3.547 7.413-.867 10.571 1.483 1.749 3.596 2.648 5.723 2.648 1.287 0 2.579-.33 3.74-1 5.759 21.335 30.164 37.407 59.315 37.407 28.904 0 53.132-15.804 59.154-36.87.837.308 1.714.462 2.588.462 2.126 0 4.24-.899 5.723-2.648 2.68-3.158 2.291-7.891-.867-10.57zm-66.599 34.626c-21.478 0-39.535-10.497-44.349-24.58h88.697c-4.813 14.084-22.87 24.58-44.348 24.58z"/><path d="m464.42 144.291h-88.694v-40.597c.001-57.177-46.516-103.694-103.693-103.694h-112.225c-57.177 0-103.694 46.517-103.694 103.693v48.097c0 20.477-13.718 34.658-13.835 34.777-2.929 2.929-2.929 7.678 0 10.606.314.314 6.916 6.833 19.699 14.078-3.715 6.026-5.864 13.115-5.864 20.699 0 13.006 6.311 24.564 16.028 31.78-.077 9.089-1.47 33.526-7.22 45.027-1.444 2.887-.878 6.375 1.405 8.657 1.603 1.603 14.617 11.535 53.917 18.533v68.157c-5.264 3.01-8.708 6.597-10.296 10.719-.3.674-.471 1.343-.655 2.029-3.661 13.719-12.369 46.061-12.734 51.265-.806 11.498 9.849 21.441 31.667 29.552 18.464 6.864 43.179 11.663 69.591 13.512 7.824.547 15.532.818 23.012.818 17.774 0 34.242-1.529 47.783-4.502 22.735-4.992 34.67-13.354 35.475-24.852.445-6.356-17.881-56.938-18.163-57.649-2.026-5.105-6.818-9.805-14.408-14.017v-15.435c50.759-13.88 88.177-60.398 88.177-115.499v-65.123c14.67-1.785 27.303-8.022 27.919-8.33 1.921-.96 3.336-2.703 3.89-4.778s.188-4.292-.999-6.083c-.131-.197-11.553-17.622-14.219-36.444h88.135c4.142 0 7.5-3.358 7.5-7.5s-3.356-7.496-7.499-7.496zm-406.346 46.568c4.608-6.426 10.84-17.436 12.566-31.568h47.983c-3.504 9.94-12.027 23.711-18.737 33.097h-4.208c-8.651 0-16.657 2.799-23.176 7.528-6.326-3.344-11.151-6.599-14.428-9.057zm76.122-31.568h21.81c-7.353 13.519-17.345 24.722-26.328 33.097h-11.668c6.027-9.306 13.479-22.273 16.186-33.097zm-53.215 149.731c4.315-12.744 5.609-29.416 5.998-38.481 2.802.631 5.71.976 8.699.976h1.519c1.796 16.713 6.449 32.534 13.439 46.993-16.061-3.751-25.026-7.257-29.655-9.488zm196.636 136.672c5.871 16.493 11.039 32.254 11.479 36.098-.485 2.135-6.629 7.309-23.7 11.057-17.879 3.927-41.506 5.124-66.53 3.372-25.023-1.752-48.254-6.23-65.412-12.609-16.895-6.281-22.07-12.444-21.936-14.384.261-2.496 3.733-16.563 7.844-32.404 4.363 3.098 10.085 5.969 17.156 8.597 15.734 5.85 36.775 9.938 59.247 11.51 6.648.466 13.201.696 19.561.696 15.136 0 29.167-1.304 40.712-3.839 9.255-2.032 16.457-4.737 21.579-8.094zm-142.374-17.036v-74.342c26.281 28.027 63.597 45.457 104.726 45.457 5.615 0 11.137-.398 16.548-1.149v39.625c-1.573.411-3.288.814-5.171 1.201-14.856 3.046-34.223 3.94-54.534 2.518-20.312-1.421-39.366-5.006-53.652-10.092-3.092-1.1-5.704-2.182-7.917-3.218zm104.725-43.884c-68.025 0-124.417-53.235-128.382-121.195-.231-3.965-3.515-7.063-7.487-7.063h-8.421c-13.545 0-24.564-11.02-24.564-24.564s11.02-24.564 24.564-24.564h15.374c-1.959 1.339-3.142 2.066-3.208 2.105-3.546 2.133-4.695 6.736-2.565 10.286 1.406 2.344 3.89 3.642 6.438 3.642 1.313 0 2.644-.345 3.852-1.07 1.659-.996 39.392-23.979 57.196-63.06h171.929v31.432c-10.743-4.313-31.05-11.494-55.446-15.39-4.086-.654-7.936 2.132-8.589 6.224-.653 4.09 2.133 7.936 6.224 8.589 28.423 4.539 51.433 14.048 57.812 16.854v73.049c-.001 57.745-46.981 104.725-104.727 104.725zm-168.854-240.483v-40.597c0-48.906 39.788-88.694 88.694-88.694h112.226c48.906 0 88.693 39.788 88.693 88.693v40.597h-289.613zm288.58 55.492v-40.493h1.483c1.684 14.871 7.878 28.705 12.275 36.953-3.751 1.334-8.6 2.753-13.758 3.54z"/><path d="m280.049 56.113c-17.396 0-31.548 14.152-31.548 31.548s14.152 31.548 31.548 31.548 31.548-14.152 31.548-31.548-14.152-31.548-31.548-31.548zm0 48.096c-9.125 0-16.548-7.423-16.548-16.548s7.423-16.548 16.548-16.548 16.548 7.423 16.548 16.548-7.423 16.548-16.548 16.548z"/></g></svg>