<svg id="Capa_1" enable-background="new 0 0 511.994 511.994" height="512" viewBox="0 0 511.994 511.994" width="512" xmlns="http://www.w3.org/2000/svg"><path d="m289.042 15.557c-12.489-4.701-27.521-8.057-45.331-8.057-89.179 0-142.286 95.192-142.286 95.192l19.539 10.521c-33.568 46.093-47.596 96.026-47.596 96.026s12.812-2.287 31.698-8.605c-.308 9.902-2.963 86.888-12.325 136.195 0 0 22.5-4.771 47.178-20.764l1.587 56.169c35.405-13.36 48.097-30.06 48.097-30.06l220.444-189.874s14.028 14.521 24.048 63.62c-.001-.001 46.339-199.472-145.053-200.363z" fill="#00d2dc"/><path d="m301.84 16.042 6.501 13.002c35.071 25.05 76.988 86.674 68.137 130.763l13.336 18.704 20.232-26.211s14.028 14.521 24.048 63.62c0-.001 44.086-190.225-132.254-199.878z" fill="#beebeb"/><path d="m235.695 35.556c1.503-17.034-7.667-27.048-7.667-27.048-79.682 10.112-126.603 94.183-126.603 94.183l19.539 10.521c-26.148 35.905-40.396 74.03-45.436 89.177l14.499 2.507c0 .001 137.544-77.27 145.668-169.34z" fill="#0096d2"/><path d="m173.069 252.493-3.507-36.574s36.574-41.083 48.598-76.654c0 0-46.221 40.626-113.106 61.752-.348 11.019-3.036 86.956-12.312 135.812 0 0 22.5-4.771 47.178-20.764l1.587 56.169c35.405-13.36 48.097-30.06 48.097-30.06l29.357-25.286z" fill="#0096d2"/><path d="m398.248 137.22c.217 24.597-8.434 41.291-8.434 41.291-22.576-33.618-49.735-55.58-65.876-66.801h-15.934c-6.466 25.418-24.546 57.881-69.637 90.849l-13.38-2.745c-26.871 34.458-52.419 47.669-52.419 47.669l-3.006-31.564h-8.016-8.016c-17.709 0-32.065 14.356-32.065 32.065 0 17.708 14.356 32.065 32.065 32.065h10.263c11.375 63.772 66.985 112.226 134.027 112.226 61.981 0 112.226-50.245 112.226-112.226v-127.75c-4.958-7.657-9.313-12.554-11.798-15.079z" fill="#fff"/><path d="m389.814 178.511c-22.576-33.618-49.735-55.58-65.876-66.801h-15.934c-.962 3.783-2.221 7.739-3.748 11.813l.579 4.72s45.091 29.058 67.636 70.642l37.576 10.619v-57.205c-4.958-7.658-9.312-12.554-11.797-15.079.216 24.597-8.436 41.291-8.436 41.291z" fill="#beebeb"/><path d="m193.61 360.21h120.242v104.21h-120.242z" fill="#fff"/><path d="m297.82 392.274c-41.829 0-79.212-18.886-104.21-48.55v120.695h56.113v-35.135c0-10.026 9.09-17.58 18.941-15.715 9.467 1.792 19.206 2.754 29.155 2.754 5.433 0 10.764-.408 16.032-1.029v-24.294c-5.249.752-10.573 1.274-16.031 1.274z" fill="#beebeb"/><circle cx="261.747" cy="243.976" fill="#00d2dc" r="20.04"/><circle cx="365.957" cy="243.976" fill="#00d2dc" r="20.04"/><path d="m225.675 272.032v-73.095c-27.122 35.123-53.107 48.546-53.107 48.546l-3.006-31.564h-16.032c-17.709 0-32.065 14.356-32.065 32.065 0 17.708 14.356 32.065 32.065 32.065h10.263c11.375 63.772 66.985 112.226 134.027 112.226.011 0 .021-.001.032-.001-42.938-22.939-72.177-68.16-72.177-120.242z" fill="#beebeb"/><path d="m330.157 435.031-.286-.256c.253.834.409 1.671.35 2.508-.85 12.141-35.001 19.64-76.28 16.75-41.278-2.889-74.052-15.074-73.202-27.215.034-.49.28-.948.421-1.422l-.469.41s-10.995 41.193-11.318 45.822c-1.004 14.338 37.701 28.728 86.45 32.14 48.749 3.413 89.082-5.444 90.086-19.782.39-5.566-15.752-48.955-15.752-48.955z" fill="#00d2dc"/><path d="m235.404 452.019c-32.098-4.693-55.382-14.951-54.665-25.201.034-.49.28-.948.421-1.422l-.469.41s-10.995 41.193-11.318 45.822c-.977 13.957 35.704 27.933 82.617 31.815z" fill="#0096d2"/><g fill="#283c64"><path d="m318.125 297.235c8.067 0 15.588-2.904 21.179-8.178 3.013-2.842 3.151-7.589.309-10.602-2.843-3.013-7.588-3.152-10.602-.309-2.755 2.599-6.723 4.089-10.886 4.089-4.164 0-8.131-1.49-10.885-4.089-3.013-2.843-7.76-2.704-10.602.308-2.843 3.013-2.705 7.76.308 10.603 5.59 5.274 13.112 8.178 21.179 8.178z"/><path d="m327.113 337.003c-3.972.736-7.895 1.109-11.66 1.109-3.647 0-7.621-.349-11.811-1.038-4.083-.669-7.945 2.097-8.617 6.185-.671 4.087 2.097 7.945 6.185 8.617 4.992.82 9.784 1.236 14.244 1.236 4.679 0 9.521-.458 14.392-1.36 4.073-.754 6.763-4.668 6.008-8.741s-4.67-6.762-8.741-6.008z"/><path d="m358.629 308.568c-1.576-3.831-5.958-5.658-9.789-4.084-2.134.878-3.644 2.627-4.293 4.667-7.513 1.82-18.048 2.881-29.094 2.881-11.646 0-22.721-1.18-30.287-3.186-.691-2.046-2.255-3.779-4.43-4.611-3.869-1.478-8.204.459-9.683 4.329l-2.4 6.281c-1.479 3.869.459 8.204 4.329 9.683.881.337 1.786.496 2.676.496 1.826 0 3.583-.681 4.944-1.874 8.955 2.475 21.476 3.882 34.853 3.882 13.223 0 25.605-1.375 34.538-3.797 1.178.728 2.541 1.135 3.945 1.135.95 0 1.917-.182 2.85-.565 3.831-1.576 5.659-5.958 4.084-9.789z"/><path d="m289.288 243.976c0-4.142-3.358-7.5-7.5-7.5s-7.5 3.358-7.5 7.5c0 6.915-5.625 12.541-12.541 12.541-6.915 0-12.54-5.625-12.54-12.541 0-6.915 5.625-12.54 12.54-12.54 4.142 0 7.5-3.358 7.5-7.5s-3.358-7.5-7.5-7.5c-15.186 0-27.54 12.354-27.54 27.54s12.354 27.541 27.54 27.541c15.186-.001 27.541-12.355 27.541-27.541z"/><path d="m385.997 236.476c-4.142 0-7.5 3.358-7.5 7.5 0 6.915-5.625 12.541-12.54 12.541s-12.541-5.625-12.541-12.541c0-6.915 5.625-12.54 12.541-12.54 4.142 0 7.5-3.358 7.5-7.5s-3.358-7.5-7.5-7.5c-15.186 0-27.541 12.354-27.541 27.54s12.354 27.541 27.541 27.541c15.186 0 27.54-12.354 27.54-27.541 0-4.143-3.358-7.5-7.5-7.5z"/><path d="m446.048 160.822c-1.028-42.44-12.439-78.384-32.999-103.944-26.267-32.656-64.625-49.258-123.82-49.358-12.721-4.466-27.865-7.52-45.518-7.52-38.459 0-76.434 17.194-109.819 49.724-24.921 24.282-38.453 48.303-39.017 49.313-.979 1.754-1.212 3.827-.65 5.755.563 1.928 1.875 3.55 3.644 4.502l12.088 6.51c-30.413 44.484-43.251 89.418-43.81 91.406-.698 2.484-.07 5.153 1.663 7.064 1.435 1.583 3.46 2.464 5.557 2.464.435 0 .874-.038 1.311-.115 1.08-.192 9.76-1.788 22.901-5.684-1.005 22.43-4.318 82.941-12.207 124.49-.468 2.464.327 4.999 2.118 6.754 1.417 1.389 3.308 2.145 5.25 2.145.514 0 1.032-.053 1.545-.161 1.117-.235 18.16-3.952 38.93-15.321l.791 43.523c.044 2.438 1.271 4.703 3.289 6.071 1.26.854 2.729 1.292 4.21 1.292.893 0 1.79-.159 2.647-.483 20.59-7.77 34.004-16.734 41.957-23.289v55.542c-6.82 3.408-10.096 7.389-11.569 10.972-1.156 2.929-11.994 44.087-12.33 48.88-1.599 22.84 46.956 36.693 92.744 39.898 6.931.485 13.951.738 20.893.738 38.919-.001 75.149-7.942 76.506-27.325.332-4.74-15.407-49.887-16.574-52.759-1.976-5.017-6.801-9.579-14.429-13.626v-20.837c54.787-10.964 96.193-59.434 96.193-117.398v-96.823c3.396 9.349 6.617 20.623 9.181 34.095.666 3.5 3.701 6.047 7.263 6.097.036.001.071.001.106.001 3.517 0 6.568-2.448 7.324-5.893.223-1.001 5.399-24.992 4.631-56.7zm-297.244 200.288-.753-41.417c5.191-3.595 10.432-7.674 15.563-12.299 4.488 11.792 10.448 22.788 17.65 32.78-4.2 4.148-14.275 12.74-32.46 20.936zm178.439 90.915c5.134 14.46 9.617 28.144 10.108 31.773-.455 1.309-4.841 5.889-21.017 9.441-16.204 3.559-37.629 4.643-60.331 3.054-22.701-1.589-43.768-5.649-59.317-11.43-16.332-6.072-19.582-11.452-19.518-12.378.25-2.271 3.268-14.518 6.88-28.463 3.915 2.65 8.885 5.112 14.953 7.368 14.373 5.343 33.581 9.077 54.086 10.512 6.062.425 12.038.634 17.837.634 13.821 0 26.636-1.191 37.186-3.508 8.069-1.771 14.452-4.112 19.133-7.003zm-126.133-15.919v-73.695c25.687 23.371 59.761 37.364 96.71 37.364 2.869 0 5.713-.108 8.532-.307v44.58c-11.297 2.684-28.705 4.537-52.216 2.892-24.801-1.737-42.335-6.382-53.026-10.834zm96.709-51.332c-62.422 0-115.684-44.598-126.643-106.043-.638-3.578-3.749-6.183-7.383-6.183h-10.264c-13.545 0-24.564-11.02-24.564-24.564s11.02-24.564 24.564-24.564h9.213l2.36 24.774c.236 2.473 1.68 4.669 3.858 5.864 1.123.616 2.365.925 3.608.925 1.168 0 2.338-.273 3.41-.82.779-.398 19.345-10.02 41.597-33.927 1.063-1.142 2.145-2.33 3.245-3.565 3.853-1.49 34.121-12.708 68.764-11.693 4.159.141 7.596-3.136 7.717-7.276.122-4.141-3.136-7.595-7.276-7.717-8.993-.267-17.614.191-25.6 1.062 21.442-19.401 42.392-45.251 50.657-76.601 13.402 8.702 44.055 31.158 68.678 68.216 1.395 2.099 3.744 3.349 6.246 3.349.141 0 .282-.004.423-.012 2.658-.15 5.037-1.697 6.251-4.066.198-.387 3.335-6.598 5.866-16.849v34.388c-1.664-.691-3.498-1.395-5.53-2.094-15.029-5.168-33.096-7.656-53.699-7.396-4.142.052-7.457 3.453-7.405 7.594.052 4.142 3.468 7.475 7.594 7.405 33.896-.428 52.37 7.463 59.039 11.09v63.977c0 57.746-46.98 104.726-104.726 104.726zm133.083-208.728c-10.288-27.395-22.144-39.735-25.295-42.679-.919-18.577-6.817-42.504-25.694-66.985-2.529-3.28-7.239-3.89-10.519-1.36-3.28 2.529-3.889 7.239-1.36 10.519 16.423 21.299 24.009 44.455 22.546 68.825-.42 6.995-1.565 13.106-2.825 17.996-28.311-37.581-60.339-58.202-69.687-63.745 2.636-23.392-3.505-38.662-3.797-39.371-1.582-3.828-5.965-5.65-9.795-4.069-3.828 1.582-5.65 5.967-4.069 9.795.257.622 24.071 61.517-60.231 126.825 15.125-22.21 30.544-52.303 40.849-91.543 1.052-4.006-1.343-8.107-5.349-9.159s-8.107 1.343-9.159 5.349c-14.773 56.252-40.451 92.497-59.39 112.997-11.098 12.012-21.245 20.177-28.253 25.158l-1.847-19.391c-.37-3.884-3.647-6.796-7.466-6.788v-.001h-16.032c-21.816 0-39.564 17.749-39.564 39.564s17.749 39.564 39.564 39.564h4.122c.294 1.319.613 2.627.943 3.931-19.801 19.803-43.024 30.069-56.394 34.73 7.382-46.21 10.036-105.432 10.607-120.217 29.776-10.52 71.425-30.236 104.296-65.087 2.842-3.013 2.703-7.76-.31-10.602-3.014-2.843-7.76-2.704-10.602.31-40.404 42.837-96.669 61.678-121.503 68.28 6.247-17.391 19.854-50.389 42.339-81.264 1.275-1.75 1.731-3.967 1.25-6.079-.48-2.112-1.85-3.913-3.757-4.94l-12.534-6.75c5.546-8.511 16.708-24.186 32.667-39.678 30.886-29.98 64.214-45.181 99.058-45.181 56.667 0 83.728 34.929 84.837 36.396 2.477 3.32 7.175 4.005 10.496 1.528 3.32-2.476 4.004-7.175 1.528-10.496-.563-.755-6.785-8.907-18.959-17.866 34.642 4.957 61.378 18.908 79.707 41.667 26.45 32.843 30.645 78.022 29.582 109.817z"/></g></svg>