<svg id="Capa_1" enable-background="new 0 0 512.012 512.012" height="512" viewBox="0 0 512.012 512.012" width="512" xmlns="http://www.w3.org/2000/svg"><path d="m163.818 312.113h136.274v144.29h-136.274z" fill="#fff"/><path d="m348.189 39.565h-1.073c-22.024-19.867-51.1-32.065-83.096-32.065s-61.072 12.198-83.096 32.065h-9.089c-30.99 0-56.113 25.122-56.113 56.113v84.608c-9.544 5.555-16.032 15.779-16.032 27.618 0 17.708 14.356 32.065 32.065 32.065h8.326c1.496 25.611 10.022 49.32 23.738 69.212v86.036c-3.479-3.326-6.52-6.363-8.932-8.864-3.66-3.793-9.889-3.04-12.601 1.48l-14.12 23.533c-2.912 4.853-3.008 10.865-.394 15.885 21.105 40.533 62.047 67.081 77.776 76.177 3.579 2.07 8.105 1.064 10.508-2.301l35.939-50.316 34.844 48.781c2.871 4.019 8.607 4.522 12.139 1.071 11.14-10.887 32.584-35.287 39.99-67.791.888-3.9.064-8.011-1.994-11.44l-13.568-22.613c-3.11-5.184-10.546-5.161-13.73-.022-2.399 3.872-5.623 8.478-9.584 13.396v-46.612c50.413-11.021 88.178-55.863 88.178-109.581v-73.279c13.806-3.576 24.048-16.007 24.048-30.931v-48.097c0-35.417-28.712-64.128-64.129-64.128z" fill="#fff"/><path d="m219.245 225.131 37.756-16.781c11.579-5.146 19.042-16.629 19.042-29.301v-3.211l-72.676 7.215v-103.408h-63.597v152.307c0 75.262 61.012 136.274 136.274 136.274 10.62 0 20.854-1.574 30.591-4.33-53.166-13.482-93.922-58.089-101.476-113.351-1.458-10.664 4.252-21.043 14.086-25.414z" fill="#beebeb"/><path d="m308.108 175.839 4.814 19.257c1.994 7.977 7.925 14.382 15.726 16.982l59.621 19.874v-49.23z" fill="#beebeb"/><path d="m308.108 95.677h-32.065c-4.427 0-8.016-3.589-8.016-8.016s3.589-8.016 8.016-8.016h32.065c4.427 0 8.016 3.589 8.016 8.016s-3.589 8.016-8.016 8.016z" fill="#00d2dc"/><path d="m349.664 39.639c23.689 21.961 38.605 53.253 38.605 88.103v54.979c13.806-3.576 24.048-16.007 24.048-30.931v-48.097c.001-34.919-27.923-63.262-62.653-64.054z" fill="#beebeb"/><path d="m154.886 386.353c15.373 15.933 53.86 52.1 97.109 64.457l-35.94 50.315c-2.403 3.365-6.929 4.371-10.508 2.301-15.729-9.096-56.671-35.643-77.776-76.177-2.614-5.019-2.517-11.032.394-15.885l14.12-23.533c2.712-4.519 8.941-5.271 12.601-1.478z" fill="#00d2dc"/><path d="m192.344 492.945 11.902-16.663c5.481-7.673 3.1-18.254-4.957-23.152-30.525-18.559-54.279-42.113-64.424-52.931l-6.7 11.166c-2.937 4.895-2.972 10.945-.331 16.005 16.326 31.276 44.411 54.167 63.599 67.166.319-.525.548-1.082.911-1.591z" fill="#0096d2"/><path d="m309.676 399.167c-8.521 13.75-26.258 36.304-57.68 52.016l34.844 48.781c2.87 4.019 8.607 4.522 12.139 1.071 11.14-10.887 32.584-35.287 39.99-67.791.889-3.9.064-8.011-1.994-11.441l-13.568-22.613c-3.111-5.185-10.547-5.162-13.731-.023z" fill="#00d2dc"/><path d="m336.974 421.802-13.568-22.613c-3.11-5.184-10.546-5.161-13.73-.022-1.561 2.52-3.549 5.403-5.757 8.418l23.45 39.083c1.758 2.93 2.956 6.132 3.759 9.415 3.24-7.048 5.982-14.688 7.84-22.84.888-3.9.064-8.011-1.994-11.441z" fill="#beebeb"/><path d="m276.044 368.226c-45.284 0-85.337-22.11-110.067-56.113h-2.159v34.145 54.032l48.097 32.065v-23.657c0-13.979 13.07-24.245 26.65-20.932 12.033 2.936 24.579 4.509 37.479 4.509 8.218 0 16.227-.855 24.048-2.256v-24.44c-7.755 1.694-15.785 2.647-24.048 2.647z" fill="#beebeb"/><path d="m292.076 277.543c12.175 0 23.261-4.235 31.733-11.162l-8.971-19.996c-5.81 5.443-13.857 8.823-22.762 8.823-9.659 0-18.217-4.049-24.096-10.325l-11.976 18.117c8.685 7.961 22.904 14.543 36.072 14.543z" fill="#beebeb"/><circle cx="235.963" cy="199.887" fill="#00d2dc" r="16.032"/><circle cx="251.995" cy="194.871" fill="#fff" r="8.016"/><circle cx="348.189" cy="199.887" fill="#00d2dc" r="16.032"/><circle cx="364.221" cy="194.871" fill="#fff" r="8.016"/><path d="m204.417 191.824c-5.953 0-11.68-3.304-14.451-8.995-3.851-7.918-.654-17.437 7.233-21.352 2.364-1.174 24.197-11.476 62.556-12.091 9.206-.325 16.15 6.92 16.287 15.77.145 8.854-6.916 16.146-15.77 16.287-31.176.501-48.75 8.725-48.927 8.811-2.235 1.065-4.599 1.57-6.928 1.57z" fill="#00d2dc"/><path d="m388.258 191.875c-2.028 0-4.086-.387-6.079-1.206-.38-.153-21.943-8.713-53.792-9.226-8.854-.141-15.915-7.433-15.77-16.287.141-8.85 7.288-16.04 16.287-15.77 38.456.615 64.411 11.19 65.495 11.641 8.181 3.39 12.067 12.768 8.678 20.944-2.556 6.178-8.525 9.904-14.819 9.904z" fill="#00d2dc"/><path d="m394.399 161.028c-1.084-.45-27.039-11.026-65.495-11.641-2.505-.075-4.838.475-6.945 1.431 26.272 3.046 43.019 9.847 43.884 10.206 8.181 3.39 12.067 12.768 8.678 20.944-.847 2.048-2.165 3.707-3.651 5.17 7.075 1.857 11.146 3.466 11.309 3.532 1.992.818 4.051 1.206 6.079 1.206 6.294 0 12.263-3.726 14.819-9.903 3.389-8.177-.497-17.556-8.678-20.945z" fill="#beebeb"/><path d="m171.834 39.565c-30.99 0-56.113 25.122-56.113 56.113v80.161h40.081v-13.91c0-11.263 5.909-21.7 15.567-27.495l8.946-5.367c9.658-5.795 15.567-16.232 15.567-27.495v-37.959c.001-13.282-10.766-24.048-24.048-24.048z" fill="#00d2dc"/><path d="m171.369 134.434v-38.482c0-12.38-13.543-20.279-24.117-13.84-8.812 5.366-19.582 10.579-31.531 13.566v80.161h40.081s-8.016-32.065 15.567-41.405z" fill="#0096d2"/><path d="m171.834 239.968h-40.081c-17.709 0-32.064-14.356-32.064-32.064 0-17.709 14.356-32.064 32.064-32.064h40.081z" fill="#beebeb"/><g fill="#283c64"><path d="m322.339 239.359-.005.003c-.371-.549-.815-1.061-1.343-1.511-3.152-2.688-7.885-2.312-10.573.841-4.841 5.678-11.355 8.805-18.341 8.805-6.987 0-13.5-3.127-18.341-8.805-2.687-3.152-7.42-3.528-10.573-.842-.106.091-.201.189-.301.284l-.006-.007-44.347 42.25c-2.999 2.857-3.114 7.604-.257 10.604 1.474 1.547 3.451 2.327 5.431 2.327 1.859 0 3.721-.687 5.172-2.07l2.715-2.586c6.888 5.293 33.357 24.415 56.256 24.415 23.9 0 44.223-20.356 48.982-25.507l1.01 1.495c1.45 2.145 3.814 3.302 6.221 3.302 1.445 0 2.905-.417 4.192-1.287 3.432-2.319 4.334-6.982 2.015-10.414zm-34.514 58.708c-8.692 0-19.054-4.147-28.158-9.048h52.61c-7.106 4.859-15.83 9.048-24.452 9.048zm-40.896-24.048 21.09-20.093c6.907 5.506 15.348 8.572 24.057 8.572 8.147 0 16.058-2.686 22.701-7.538l12.88 19.059z"/><path d="m221.75 231.211 32.064-8.016c4.019-1.004 6.462-5.077 5.457-9.095-.382-1.531-1.212-2.832-2.313-3.802 1.12-3.315-.207-7.068-3.352-8.887-3.585-2.073-8.173-.849-10.248 2.737-1.524 2.634-4.357 4.271-7.395 4.271-4.705 0-8.532-3.828-8.532-8.532s3.923-7.718 8.51-8.762c3.844-.875 16.35-2.052 24.45-2.182 6.286-.1 12.155-2.642 16.528-7.158s6.725-10.464 6.622-16.743c-.1-6.497-2.695-12.488-7.305-16.87-4.476-4.254-10.389-6.48-16.667-6.282-39.978.652-63.188 11.622-65.703 12.871-11.5 5.708-16.275 19.771-10.642 31.353 3.908 8.025 12.228 13.211 21.194 13.211 2.78 0 5.485-.487 8.105-1.449-.056.664-.092 1.334-.092 2.012 0 6.422 2.589 12.249 6.774 16.499l-1.093.273c-4.019 1.004-6.462 5.077-5.457 9.095.852 3.408 3.91 5.683 7.27 5.683.602 0 1.214-.074 1.825-.227zm-17.333-46.887c-3.319 0-6.273-1.831-7.707-4.775-2.043-4.2-.328-9.293 3.824-11.354 2.207-1.096 22.619-10.721 59.34-11.309.048-.001.097-.002.145-.004.113-.004.225-.006.334-.006 2.689 0 4.494 1.166 5.547 2.167 1.666 1.583 2.604 3.795 2.641 6.237.037 2.278-.815 4.434-2.399 6.07-1.585 1.637-3.712 2.558-5.992 2.594-33.242.534-51.915 9.481-52.03 9.538-1.172.559-2.418.842-3.703.842z"/><path d="m299.234 321.671c-4.031.649-8.012.979-11.833.979-3.697 0-7.723-.308-11.966-.914-4.099-.586-7.899 2.263-8.486 6.363-.586 4.101 2.262 7.9 6.363 8.486 4.943.707 9.684 1.065 14.089 1.065 4.618 0 9.401-.394 14.218-1.169 4.089-.659 6.871-4.508 6.212-8.597-.659-4.09-4.509-6.873-8.597-6.213z"/><path d="m208.426 264.202c-3.495-2.225-8.13-1.193-10.354 2.301l-3.507 5.511c-2.224 3.495-1.193 8.13 2.301 10.354 1.248.794 2.642 1.173 4.019 1.173 2.479 0 4.906-1.228 6.335-3.475l3.507-5.511c2.224-3.494 1.193-8.13-2.301-10.353z"/><path d="m369.306 267.362c-2.131-3.551-6.738-4.705-10.29-2.572-3.552 2.131-4.704 6.738-2.572 10.29l3.006 5.01c1.406 2.344 3.891 3.642 6.438 3.642 1.313 0 2.644-.345 3.852-1.07 3.552-2.131 4.704-6.738 2.572-10.29z"/><path d="m251.995 127.226h80.162c4.142 0 7.5-3.358 7.5-7.5s-3.358-7.5-7.5-7.5h-80.162c-4.142 0-7.5 3.358-7.5 7.5s3.358 7.5 7.5 7.5z"/><path d="m419.818 103.693c0-39.496-32.133-71.629-71.629-71.629-.071 0-.14.009-.211.011-23.557-19.994-54.031-32.075-87.277-32.075-32.099 0-63.026 11.38-87.414 32.101-.482-.022-.966-.037-1.453-.037-35.076 0-63.613 28.537-63.613 63.613v80.162c0 .243.014.482.036.719-8.772 6.499-14.819 16.314-15.884 27.483-1.063 11.137 2.618 22.243 10.099 30.471 7.486 8.234 18.159 12.957 29.281 12.957h1.519c2.524 23.478 10.679 45.201 23.046 63.847v66.87c-2.697-1.417-5.771-2.021-8.902-1.666-4.836.551-9.051 3.269-11.562 7.454l-14.12 23.533c-4.257 7.096-4.487 15.771-.615 23.208 21.889 42.038 63.709 69.395 80.674 79.206 2.446 1.414 5.116 2.093 7.755 2.093 4.847 0 9.585-2.292 12.61-6.527l29.836-41.771 28.741 40.237c2.642 3.698 6.746 6.048 11.26 6.448.458.041.915.061 1.37.061 4.037 0 7.932-1.577 10.854-4.433 12.382-12.101 34.312-37.48 42.061-71.488 1.296-5.689.275-11.714-2.875-16.966l-13.568-22.613c-2.802-4.671-7.72-7.484-13.155-7.523-3.327-.054-6.477.971-9.09 2.828v-18.764c50.759-13.88 88.177-60.398 88.177-115.499v-57.86c6.336-2.124 11.58-6.878 14.235-13.295 1.577-3.804 2.1-7.859 1.611-11.837 5.246-5.778 8.202-13.343 8.202-21.216v-48.103zm-15 0v48.097c0 2.149-.439 4.247-1.23 6.2-1.865-1.598-3.979-2.922-6.313-3.889-.136-.056-.652-.267-1.505-.59v-18.442c0-32.349-11.436-62.074-30.47-85.356 22.886 7.271 39.518 28.717 39.518 53.98zm-281.597-8.016c0-26.805 21.808-48.613 48.613-48.613 9.125 0 16.548 7.423 16.548 16.548v12.754c-7.189 6.391-31.499 26.153-65.161 34.185zm0 30.243c29.149-6.183 51.93-20.248 65.161-30.184v5.836c0 8.579-4.57 16.65-11.926 21.064l-8.946 5.367c-11.848 7.109-19.208 20.109-19.208 33.926v6.41h-15.17c-3.403 0-6.724.42-9.911 1.2zm86.732 370.846c-.164.23-.424.299-.65.167-15.829-9.153-54.81-34.604-74.878-73.148-1.444-2.774-1.38-5.975.173-8.562l14.12-23.533c.04-.065.144-.239.399-.268.022-.002.044-.003.064-.003.172 0 .256.087.309.141 8.404 8.71 21.997 21.746 39.029 34.385 17.576 13.042 34.833 22.705 51.441 28.813zm41.316-54.015c-32.454-10.126-62.177-34.121-79.951-50.756v-61.727c26.281 28.027 63.597 45.458 104.726 45.458 5.615 0 11.137-.397 16.548-1.149v34.903c0 .019.003.037.003.055-9.021 10.718-22.447 23.276-41.326 33.216zm64.782-40.006c.058-.093.192-.31.518-.31h.005c.258.002.337.134.401.241l13.568 22.613c1.133 1.889 1.539 4.045 1.112 5.916-6.895 30.261-26.718 53.146-37.92 64.093-.05.049-.191.176-.417.159-.23-.021-.333-.164-.376-.225l-29.887-41.841c28.926-16.563 45.451-38.472 52.996-50.646zm-40.007-42.019c-68.025 0-124.417-53.235-128.382-121.195-.231-3.965-3.515-7.063-7.487-7.063h-8.421c-6.906 0-13.533-2.933-18.183-8.047-4.712-5.183-6.937-11.915-6.265-18.956 1.183-12.407 12.527-22.126 25.826-22.126h15.17v8.532c0 4.142 3.358 7.5 7.5 7.5s7.5-3.358 7.5-7.5v-29.942c0-8.579 4.57-16.65 11.926-21.064l8.946-5.367c11.848-7.109 19.208-20.109 19.208-33.926v-37.959c0-10.581-5.242-19.956-13.259-25.682 20.426-14.854 45.085-22.931 70.578-22.931 66.206 0 120.069 53.863 120.069 120.069v13.768c-12.029-3.146-29.968-6.596-51.699-6.948-6.248-.17-12.164 2.1-16.666 6.399-4.596 4.39-7.184 10.339-7.286 16.746-.103 6.286 2.249 12.235 6.622 16.75 4.167 4.304 9.695 6.81 15.644 7.123-1.738 3.281-2.728 7.016-2.728 10.98 0 3.761.892 7.316 2.468 10.473-1.066.963-1.869 2.242-2.244 3.74-1.005 4.018 1.438 8.09 5.457 9.095l32.064 8.016c.61.153 1.222.226 1.825.226 3.36 0 6.418-2.275 7.27-5.683 1.005-4.018-1.438-8.09-5.457-9.095l-1.089-.272c1.385-1.403 2.608-2.984 3.617-4.728 2.074-3.585.849-8.173-2.737-10.248-3.585-2.073-8.173-.849-10.248 2.737-1.524 2.634-4.357 4.271-7.395 4.271-4.705 0-8.532-3.828-8.532-8.532s3.6-9.012 8.305-9.012c12.125 0 32.326 7.081 32.808 7.244v57.881c.001 57.746-46.979 104.726-104.725 104.726zm120.103-181.622c-1.325 3.202-4.421 5.271-7.889 5.271-1.103 0-2.19-.217-3.276-.662-.935-.377-23.288-9.234-56.474-9.768-2.279-.036-4.406-.958-5.991-2.594-1.584-1.637-2.437-3.792-2.399-6.074.038-2.365.978-4.546 2.648-6.141 1.528-1.46 3.529-2.255 5.657-2.255.085 0 .171.001.257.004.035.001.07.002.105.002 37.094.592 61.709 10.641 62.744 11.07 2.106.873 3.747 2.513 4.62 4.619.871 2.104.871 4.421-.002 6.528z"/></g></svg>