<svg id="Capa_1" enable-background="new 0 0 511.992 511.992" height="512" viewBox="0 0 511.992 511.992" width="512" xmlns="http://www.w3.org/2000/svg"><path d="m297.182 52.922c-16.048-27.238-48.412-45.422-81.267-45.422-53.126 0-96.194 44.004-96.194 98.285 0 3.646.22 7.239.598 10.781-20.443 27.867-32.663 62.142-32.663 99.353 0 19.652 7.283 37.816 16.112 50.159.891 14.021 10.781 25.597 23.969 28.992l16.032 1.678 2.294 15.366c4.263 23.949 14.768 45.735 29.77 63.607v78.344s71.811 28.056 120.242 7.348v-38.35c54.365-7.798 96.194-54.428 96.194-110.951v-30.206c18.59-12.968 32.065-35.783 32.065-65.988.001-78.726-54.138-144.593-127.152-162.996z" fill="#fff"/><path d="m298.433 53.294c-1.458 1.411-2.356 2.303-2.356 2.303s-96.194 72.145-8.016 80.161 104.21 64.129 104.21 80.161v65.988c18.59-12.968 32.065-35.783 32.065-65.988-.001-78.27-53.533-143.782-125.903-162.625z" fill="#beebeb"/><path d="m296.077 55.597s-2.142 1.612-5.45 4.334c3.777 4.757 11.585 17.062 13.466 39.254 0 0 67.361 2.027 101.82 40.522-21.62-42.252-60.528-74.188-107.48-86.413-1.459 1.411-2.356 2.303-2.356 2.303z" fill="#00d2dc"/><path d="m258.501 46.078s-76.57 1.537-120.771 2.596c-11.291 16.107-18.008 35.788-18.008 57.111 0 3.646.22 7.239.598 10.781-20.443 27.867-32.663 62.142-32.663 99.353 0 19.652 7.283 37.816 16.112 50.159-.124-1.945-.088-3.934.151-5.958 1.892-16.058 16.227-28.171 32.396-28.171 95.632 0 153.248-52.604 167.778-104.208 10.522-37.373-6.443-75.245-45.593-81.663z" fill="#00d2dc"/><path d="m196.543 57.935s-38.745 9.686-76.223 58.632c-20.443 27.867-32.663 62.142-32.663 99.353 0 15.563 4.595 30.14 10.88 41.684l37.778-25.654 4.105-7.39c7.588-13.661 19.336-24.517 33.636-30.817 27.243-12.003 71.347-39.139 68.914-88.378-2.309-46.724-46.427-47.43-46.427-47.43z" fill="#0096d2"/><path d="m259.605 47.633c12.734 0 25.134 1.402 37.092 3.993-17.121-26.523-46.864-44.126-80.782-44.126-53.126 0-96.194 43.067-96.194 96.194 0 4.412.363 8.734.946 12.984 31.841-41.944 82.216-69.045 138.938-69.045z" fill="#00d2dc"/><path d="m211.023 7.799c-50.832 2.568-91.301 44.425-91.301 95.895 0 4.412.363 8.734.946 12.984 9.959-13.118 21.81-24.677 35.03-34.503 4.499-32.616 25.478-60.795 55.325-74.376z" fill="#0096d2"/><path d="m280.044 424.339c-41.865 0-79.261-18.896-104.21-48.617v120.763h56.113v-35.135c0-10.026 9.09-17.58 18.941-15.715 9.467 1.792 19.206 2.754 29.155 2.754 5.433 0 10.764-.408 16.032-1.029v-24.294c-5.248.751-10.572 1.273-16.031 1.273z" fill="#beebeb"/><path d="m215.915 304.097c.097-6.893 5.144-12.715 11.953-13.79l11.322-1.787c11.392-2.752 20.374-11.5 23.427-22.814l-26.21-33.754-92.637 1.134c-10.004 0-18.393-2.206-30.964 10.519-5.797 5.868-9.485 13.79-9.076 22.029.842 16.958 14.857 30.448 32.024 30.448 2.911 0 5.677-.513 8.358-1.24 3.554 72.092 62.958 129.498 135.932 129.498 2.46 0 4.866-.212 7.287-.368-42.532-23.062-71.416-68.093-71.416-119.875z" fill="#beebeb"/><path d="m385.59 296.081-35.91-8.676c-8.543-2.064-15.28-8.625-17.57-17.111l-1.964-7.28 60.121 9.352z" fill="#beebeb"/><g fill="#00d2dc"><circle cx="143.77" cy="296.081" r="16.032"/><circle cx="239.964" cy="247.984" r="16.032"/><circle cx="352.19" cy="247.984" r="16.032"/><path d="m323.718 478.827-11.609-29.131-.017-.001c.259.842.421 1.685.362 2.529-.846 12.084-34.839 19.549-75.925 16.672-41.087-2.876-73.708-15.004-72.862-27.088.019-.264.185-.506.235-.765l-.304-.018-10.419 23.837c-1.875 4.571-1.116 9.857 2.154 13.56 10.719 12.137 42.54 22.624 80.718 25.389 43.083 3.121 79.572-4.656 87.242-17.749 1.277-2.179 1.325-4.872.425-7.235z"/></g><path d="m209.979 465.56c-27.682-5.108-46.964-14.433-46.312-23.751.019-.264.185-.506.235-.765l-.304-.018-10.419 23.837c-1.875 4.571-1.116 9.857 2.154 13.56 9.264 10.489 34.303 19.734 65.571 23.839-5.211-14.566-8.85-28.15-10.925-36.702z" fill="#0096d2"/><circle cx="255.996" cy="247.984" fill="#fff" r="8.016"/><circle cx="368.222" cy="247.984" fill="#fff" r="8.016"/><path d="m302.227 46.26c-.104-.185-.21-.369-.331-.548-19.338-28.623-51.48-45.712-85.98-45.712-57.177 0-103.694 46.517-103.694 103.694 0 3.455.182 6.932.523 10.362-20.51 28.76-32.587 63.927-32.587 101.864 0 22.341 5.411 39.998 16.497 53.918 2.075 13.616 11.154 25.447 24.024 30.766 1.868 9.554 9.534 17.053 19.173 18.677 4.913 22.271 14.848 42.398 28.484 59.268v47.588c-6.861 3.556-10.024 7.684-11.341 11.348-.094.176-10.688 24.376-10.688 24.376-.023.053-.045.105-.067.158-2.967 7.234-1.604 15.622 3.472 21.371 12.433 14.077 46.11 25.03 85.797 27.905 6.459.468 12.879.699 19.154.699 14.478 0 28.183-1.231 39.804-3.629 18.458-3.808 30.333-10.035 35.297-18.509 2.379-4.063 2.73-9.054.964-13.695-.014-.037-.028-.073-.042-.109l-11.237-28.196c-1.598-5.831-6.918-11.07-15.872-15.646v-2.698c54.787-10.964 96.194-59.434 96.194-117.398v-27.802c21.56-14.92 32.064-37.337 32.064-68.392 0-80.963-55.007-149.31-129.608-169.66zm76.547 65.888c-6.496-3.797-13.538-7.161-21.127-10.04-18.794-7.129-35.818-9.496-43.542-10.25-1.409-9.304-4.479-17.892-9.167-25.256-1.117-1.755-2.335-3.413-3.614-5.009 30.565 8.994 57.372 26.837 77.45 50.555zm-162.858-97.148c24.079 0 46.814 9.737 63.356 26.624-7.618-1.012-15.385-1.543-23.275-1.543-50.628 0-96.319 21.516-128.433 55.875 3.933-45.296 42.053-80.956 88.352-80.956zm-38.555 60.659c3.188.637 11.03 2.554 18.549 7.124 11.509 6.995 16.698 16.625 15.862 29.44-.749 11.481-16.292 44.963-75.853 48.105-12.233.646-23.069 2.478-32.779 5.542 12.637-38.501 39.44-70.634 74.221-90.211zm-77.016 170.892c-2.617-6.552-4.229-13.938-4.865-22.235 10.271-10.233 24.752-16.223 41.161-16.94 82.92-3.626 128.417-46.219 136.722-86.821 3.629-17.739.228-33.521-10.109-46.913-2.384-3.089-6.713-4.153-10.043-2.118-3.901 2.385-4.756 7.545-2.021 11.039 7.807 9.977 10.252 21.421 7.478 34.985-3.646 17.819-15.931 34.914-34.593 48.136-22.49 15.934-52.951 25.168-88.089 26.705-15.125.661-29.003 5.06-40.452 12.639.487-7.243 1.445-14.359 2.864-21.311 10.608-4.853 23.173-7.611 38.312-8.41 70.777-3.734 88.986-46.099 90.03-62.108.865-13.26-2.982-24.647-11.435-33.844-5.536-6.024-12.208-10.175-18.425-13.019 18.308-7.261 38.254-11.256 59.116-11.256h.053c4.55.002 9.089.695 13.409 2.125 9.853 3.26 17.512 9.104 22.827 17.453 8.356 13.125 10.029 31.732 4.589 51.051-13.838 49.148-68.851 98.74-160.558 98.74-.028 0-.055.002-.082.002h-.479c-.144 0-.284.013-.426.021-15.022.378-28.479 9.305-34.984 22.079zm116.311 27.3c.852 3.408 3.91 5.683 7.27 5.683.602 0 1.214-.073 1.825-.226l32.064-8.016c4.019-1.005 6.462-5.077 5.457-9.095-.383-1.531-1.213-2.831-2.313-3.801 1.121-3.314-.207-7.068-3.352-8.887-3.584-2.074-8.173-.85-10.248 2.736-1.524 2.635-4.358 4.271-7.396 4.271-4.705 0-8.532-3.828-8.532-8.532s3.828-8.532 8.532-8.532c17.965 0 32.581 14.615 32.581 32.581s-14.616 32.581-32.581 32.581-32.581-14.615-32.581-32.581c0-8.747 3.471-16.694 9.101-22.553.368 5.828 2.864 11.086 6.721 15.003l-1.092.273c-4.018 1.005-6.461 5.077-5.456 9.095zm79.805 43.257c8.932 0 17.575-3.279 24.58-9.154 2.67 2.319 5.595 4.35 8.735 6.034l5.857 14.673h-82.866l9.8-14.771c3.216-1.744 6.204-3.854 8.92-6.263 7.074 6.084 15.876 9.481 24.974 9.481zm-15.451-21.054c4.146-7.056 6.534-15.263 6.534-24.022 0-4.705 3.828-8.532 8.532-8.532s8.532 3.828 8.532 8.532c0 8.939 2.482 17.307 6.786 24.459-4.316 3.645-9.482 5.616-14.934 5.616-5.668.001-11.034-2.123-15.45-6.053zm36.779 47.607c-6.323 4.845-14.091 9.048-21.712 9.048-7.714 0-16.987-4.158-25.13-9.048zm-174.018-39.048c-4.705 0-8.533-3.828-8.533-8.532s3.828-8.532 8.533-8.532 8.532 3.828 8.532 8.532-3.828 8.532-8.532 8.532zm166.877 161.678 6.073 15.239c.137.381.119.682.099.743-1.985 3.389-9.697 8.163-25.385 11.4-15.342 3.165-34.819 4.111-54.843 2.659-29.431-2.132-64.863-10.673-75.638-22.873-1.312-1.485-1.647-3.71-.863-5.687l4.698-10.749c4.167 3.205 9.811 6.15 16.969 8.812 14.415 5.359 33.679 9.104 54.245 10.543 6.08.425 12.073.636 17.89.636 13.862 0 26.715-1.195 37.295-3.518 8.259-1.813 14.743-4.224 19.46-7.205zm-127.313-15.957v-55.879c25.68 23.382 59.754 37.384 96.709 37.384 2.869 0 5.713-.108 8.532-.307v27.186c-11.347 2.583-28.521 4.307-51.524 2.698-25.285-1.771-43.044-6.55-53.717-11.082zm201.436-138.221c0 8.503-1.026 16.77-2.948 24.691-.093-.25-.198-.498-.32-.742l-3.935-7.883c-1.851-3.706-6.355-5.21-10.06-3.361-3.706 1.85-5.211 6.354-3.361 10.06l3.935 7.883c1.313 2.631 3.963 4.152 6.716 4.152 1.125 0 2.269-.255 3.344-.791.438-.219.843-.477 1.217-.764-13.928 41.499-53.185 71.481-99.315 71.481-60.326 0-112.077-41.66-125.352-99.924 7.489-3.942 12.61-11.8 12.61-20.834 0-12.976-10.557-23.532-23.532-23.532-8.971 0-16.784 5.048-20.753 12.451-8.012-4.906-12.802-14.219-11.649-24.001 1.422-12.07 12.358-21.526 24.905-21.547h69.062c-8.022 8.521-12.952 19.982-12.952 32.581 0 26.236 21.345 47.581 47.581 47.581.275 0 .546-.016.82-.021l-9.758 14.707c-2.29 3.451-1.349 8.106 2.103 10.396 1.276.846 2.715 1.251 4.14 1.251 2.429 0 4.813-1.178 6.256-3.354l.152-.229c4.624 4.02 30.208 25.346 52.401 25.346 10.642 0 21.679-4.616 32.806-13.719 5.89-4.819 10.203-9.638 12.111-11.9l.61 1.528c1.171 2.935 3.989 4.721 6.968 4.721.925 0 1.866-.172 2.778-.536 3.847-1.536 5.721-5.899 4.185-9.746l-7.438-18.632c1.35.116 2.713.188 4.093.188 12.598 0 24.06-4.931 32.581-12.952v5.451zm-32.582-7.5c-17.965 0-32.581-14.615-32.581-32.581 0-8.747 3.471-16.694 9.101-22.553.202 3.208 1.05 6.243 2.415 8.978-1.067.963-1.869 2.241-2.244 3.74-1.005 4.019 1.438 8.091 5.457 9.095l32.064 8.016c.61.153 1.222.226 1.825.226 3.36 0 6.418-2.275 7.27-5.683 1.005-4.019-1.438-8.091-5.457-9.095l-1.088-.272c1.385-1.402 2.607-2.983 3.617-4.728 2.074-3.585.849-8.174-2.737-10.248-3.584-2.073-8.173-.85-10.248 2.736-1.524 2.635-4.357 4.271-7.395 4.271-4.705 0-8.532-3.828-8.532-8.532s3.828-8.532 8.532-8.532c17.965 0 32.581 14.615 32.581 32.581s-14.614 32.581-32.58 32.581zm47.582-39.749v-32.912c0-24.875-7.108-46.302-21.127-63.687-13.748-17.048-31.389-26.554-43.768-31.528-3.843-1.544-8.211.32-9.755 4.164s.32 8.211 4.164 9.755c16.971 6.818 43.348 22.574 52.346 56.253-8.563-3.157-26.819-8.484-53.369-8.91-4.147-.069-7.552 3.237-7.619 7.379-.066 4.142 3.237 7.553 7.379 7.619 33.342.535 52.216 9.516 52.496 9.652 1.064.524 2.194.773 3.306.773.201 0 .399-.025.598-.041.028.353.045.716.069 1.072h-32.301c-19.205 0-35.778 11.444-43.287 27.866-3.693-2.411-8.097-3.818-12.826-3.818s-9.133 1.407-12.826 3.818c-7.509-16.422-24.081-27.866-43.287-27.866h-20.656c5.34-2.131 10.471-4.451 15.379-6.952.222-.033.445-.066.668-.12 11.163-2.7 23.399-4.175 36.369-4.383 4.142-.066 7.445-3.478 7.379-7.619-.067-4.142-3.476-7.445-7.619-7.379-2.372.038-4.714.13-7.042.247 24.224-19.625 40.008-44.095 46.871-68.471 2.165-7.69 3.35-15.332 3.614-22.727 18.48 2.191 75.779 12.832 94.741 61.347 4.657 15.027 7.168 30.988 7.168 47.524-.001 21.363-5.482 37.252-17.065 48.944z" fill="#283c64"/><path d="m302.191 376.462c-2.1.55-4.157.829-6.115.829-1.923 0-4.049-.267-6.319-.795-4.032-.937-8.065 1.574-9.002 5.608-.938 4.035 1.573 8.065 5.608 9.003 3.38.785 6.649 1.184 9.713 1.184 3.239 0 6.576-.444 9.916-1.319 4.007-1.05 6.404-5.149 5.355-9.156s-5.15-6.404-9.156-5.354z" fill="#283c64"/><path d="m217.798 324.818c-3.707-1.85-8.21-.345-10.06 3.361l-3.935 7.883c-1.85 3.706-.345 8.21 3.361 10.06 1.076.537 2.218.791 3.344.791 2.753 0 5.403-1.522 6.716-4.152l3.935-7.883c1.85-3.706.345-8.21-3.361-10.06z" fill="#283c64"/></svg>