<svg id="Capa_1" enable-background="new 0 0 511.992 511.992" height="512" viewBox="0 0 511.992 511.992" width="512" xmlns="http://www.w3.org/2000/svg"><path d="m416.792 177.171c1.53-42.081-4.482-73.477-4.482-73.477-32.064-72.146-88.177-96.194-152.306-96.194-64.131 0-93.365 42.668-99.081 52.166-34.814 4.717-69.258 29.949-69.258 92.124 0 78.294 38.235 124.566 2.672 193.899-1.622 3.162-1.09 6.977 1.433 9.48 5.387 5.343 19.244 15.641 35.383 22.032-1.195 2.703-2.327 5.021-3.321 6.883-2.107 3.947-.441 8.809 3.538 10.856 25.594 13.169 55.152 19.378 55.152 19.378l209.755-142.286c.001 0 27.032-45.741 20.515-94.861z" fill="#beebeb"/><path d="m243.972 127.742s5.971-72.369-81.451-70.589c-.641.974-1.194 1.844-1.597 2.514-34.814 4.717-69.258 29.949-69.258 92.124 0 78.294 38.235 124.566 2.672 193.899-1.622 3.162-1.09 6.977 1.433 9.48 5.387 5.343 19.244 15.641 35.383 22.032-1.195 2.703-2.327 5.021-3.321 6.883-2.107 3.947-.441 8.809 3.538 10.856 19.739 10.156 41.777 16.157 50.854 18.378z" fill="#0096d2"/><path d="m106.571 253.661c4.868 29.463 5.238 57.965-12.234 92.028-1.622 3.162-1.09 6.977 1.433 9.48 2.652 2.63 7.373 6.465 13.393 10.439 5.162-9.498 22.583-44.57 22.583-85.56 0-19.132-11.425-25.559-25.175-26.387z" fill="#00d2dc"/><path d="m412.31 103.694c-32.064-72.146-88.177-96.194-152.306-96.194-64.131 0-93.365 42.668-99.081 52.166-2.42.328 34.952-4.07 59.001 11.963-16.032 48.097-50.708 114.837-96.194 160.323-40.313 40.313 51.771-10.396 106.824-42.15l13.418-62.059s.801-9.988-2.667-22.451c-2.582-9.278 2.597-18.894 11.943-21.222 42.434-10.57 115.514-13.935 159.064 67.721l4.447-3.177c-1.015-26.952-4.449-44.92-4.449-44.92z" fill="#00d2dc"/><path d="m194.205 57.935s51.437-63.795 154.645-7.348c0 0-93.188-26.386-130.596 22.044z" fill="#0096d2"/><path d="m179.843 344.177h120.242v136.274h-120.242z" fill="#fff"/><path d="m284.052 384.258c-34.19 0-65.203-15.373-85.902-40.081h-18.308v136.274h56.113v-35.135c0-10.026 9.09-17.58 18.941-15.715 9.467 1.792 19.206 2.754 29.156 2.754 5.433 0 10.764-.408 16.032-1.029v-48.599c-5.207.961-10.55 1.531-16.032 1.531z" fill="#beebeb"/><path d="m235.956 111.71s-14.957 97.18-88.177 103.844v56.479c0 75.262 61.012 136.274 136.274 136.274 61.98 0 112.225-50.245 112.225-112.226v-80.161c0-104.21-160.322-104.21-160.322-104.21z" fill="#fff"/><path d="m219.923 288.065v-8.016c0-22.136 17.945-40.081 40.081-40.081h24.048v-8.016c0-8.854-7.178-16.032-16.032-16.032h-40.081v-64.13l-56.113 64.129-24.048 1.134c-8.758-2.268-18.42-2.213-31.024 10.58-5.632 5.716-9.267 13.238-9.044 21.259.481 17.289 14.647 31.156 32.052 31.156 2.911 0 5.677-.513 8.358-1.24 3.554 72.092 62.958 129.498 135.932 129.498 2.46 0 4.866-.212 7.287-.368-42.532-23.06-71.416-68.092-71.416-119.873z" fill="#beebeb"/><path d="m404.294 239.968h-88.177v-8.016c0-8.854 7.178-16.032 16.032-16.032h56.113c8.854 0 16.032 7.178 16.032 16.032z" fill="#beebeb"/><circle cx="147.778" cy="280.048" fill="#00d2dc" r="16.032"/><circle cx="243.972" cy="231.952" fill="#00d2dc" r="16.032"/><circle cx="356.198" cy="231.952" fill="#00d2dc" r="16.032"/><path d="m327.726 478.827-11.609-29.131-.017-.001c.259.842.421 1.685.362 2.529-.846 12.084-34.839 19.549-75.925 16.672-41.087-2.876-73.708-15.004-72.862-27.088.019-.264.185-.506.235-.765l-.304-.018-10.419 23.838c-1.875 4.571-1.116 9.857 2.154 13.56 10.719 12.137 42.54 22.624 80.718 25.389 43.083 3.121 79.572-4.656 87.242-17.749 1.277-2.181 1.324-4.873.425-7.236z" fill="#00d2dc"/><path d="m213.987 465.559c-27.682-5.108-46.964-14.433-46.312-23.751.019-.264.185-.506.235-.765l-.304-.018-10.419 23.838c-1.875 4.571-1.116 9.857 2.154 13.56 9.264 10.489 34.303 19.734 65.571 23.839-5.211-14.566-8.85-28.15-10.925-36.703z" fill="#0096d2"/><circle cx="227.939" cy="320.129" fill="#beebeb" r="8.016"/><circle cx="364.214" cy="320.129" fill="#beebeb" r="8.016"/><circle cx="259.337" cy="230.952" fill="#fff" r="8.016"/><circle cx="371.563" cy="230.952" fill="#fff" r="8.016"/><g fill="#283c64"><path d="m302.757 303.581c8.067 0 15.589-2.904 21.179-8.178 3.013-2.843 3.151-7.589.308-10.602-2.841-3.013-7.588-3.152-10.602-.309-2.754 2.599-6.722 4.089-10.885 4.089s-8.131-1.49-10.885-4.089c-3.013-2.843-7.76-2.704-10.602.309-2.843 3.013-2.705 7.759.308 10.602 5.59 5.273 13.111 8.178 21.179 8.178z"/><path d="m275.491 181.967c-37.113.595-58.029 10.77-58.901 11.202-3.702 1.836-5.208 6.315-3.385 10.022 1.304 2.65 3.969 4.187 6.741 4.187 1.105 0 2.229-.245 3.288-.761.187-.091 19.072-9.116 52.498-9.652 4.142-.066 7.445-3.478 7.379-7.62-.067-4.142-3.505-7.463-7.62-7.378z"/><path d="m340.165 312.096h-88.178c-3.105 0-5.89 1.914-7.002 4.813-1.113 2.899-.324 6.184 1.985 8.262 1.178 1.061 29.135 25.974 53.114 25.974 10.642 0 21.679-4.616 32.806-13.72 7.91-6.472 12.983-12.952 13.195-13.225 1.759-2.261 2.076-5.326.817-7.899-1.258-2.573-3.872-4.205-6.737-4.205zm-40.08 24.049c-7.714 0-16.987-4.158-25.131-9.049h46.796c-6.333 4.845-14.094 9.049-21.665 9.049z"/><path d="m306.2 359.897c-2.1.55-4.157.829-6.115.829-1.923 0-4.049-.267-6.32-.794-4.039-.938-8.065 1.574-9.002 5.609-.937 4.034 1.574 8.065 5.609 9.002 3.382.786 6.65 1.184 9.713 1.184 3.24 0 6.576-.443 9.916-1.318 4.007-1.05 6.404-5.148 5.355-9.155s-5.15-6.408-9.156-5.357z"/><path d="m427.816 167.428c-1.124-21.349-5.199-40.423-12.156-57.035 3.567-1.781 5.139-6.065 3.503-9.746-15.79-35.527-38.411-61.973-67.234-78.602-25.356-14.628-56.284-22.045-91.925-22.045-73.388 0-100.468 47.542-103.149 52.626-4.664.802-9.333 1.953-13.951 3.493-21.938 7.312-58.739 29.465-58.739 95.671 0 29.243 5.28 54.554 9.938 76.885 8.04 38.542 14.983 71.828-6.439 113.592-3.137 6.115-2.002 13.441 2.825 18.228 5.098 5.057 15.375 13.894 30.475 20.592-1.707 3.513-2.021 7.478-.846 11.242 1.243 3.98 4.093 7.363 7.822 9.281 20.029 10.305 36.971 14.474 44.403 15.942v8.584c-6.86 3.555-10.023 7.682-11.34 11.346-.094.176-.188.354-.269.541l-10.419 23.837c-.023.053-.045.105-.067.158-2.967 7.235-1.604 15.624 3.472 21.37 12.433 14.077 46.11 25.03 85.797 27.905 6.46.468 12.879.699 19.156.699 14.477 0 28.183-1.231 39.802-3.629 18.457-3.808 30.333-10.035 35.297-18.509 2.38-4.062 2.731-9.054.964-13.695-.014-.036-.028-.072-.042-.108l-11.24-28.204c-1.6-5.827-6.919-11.063-15.869-15.638v-18.73c54.787-10.964 96.193-59.434 96.193-117.398v-21.701c2.577-3.85 4.604-8.096 5.977-12.625 3.992-9.055 8.815-21.903 12.034-36.926 3.806-17.767 4.489-34.693 2.14-50.435 2.444-1.343 4.044-3.995 3.887-6.966zm-167.812-152.428c48.842 0 86.683 14.442 114.448 43.869-9.427-6.469-19.967-11.6-31.571-15.331-23.392-7.521-50.251-8.831-75.629-3.69-20.752 4.204-38.093 12.208-48.785 22.349-11.438-6.466-26.55-10.642-42.738-10.966 9.931-12.61 35.1-36.231 84.275-36.231zm-158.262 172.341c-1.554-11.189-2.577-22.926-2.577-35.551 0-23.046 4.946-41.967 14.699-56.236 8.19-11.982 19.557-20.462 33.783-25.205 20.757-6.918 43.922-4.407 59.546 2.827-44.013 4.528-74.653 24.082-91.217 58.313-8.513 17.594-12.429 37.111-14.234 55.852zm25.334 180.048c-12.933-5.725-21.689-13.246-26.024-17.545-.263-.26-.081-.654-.041-.731 12.825-25.002 16.486-47.379 15.852-68.887 2.407 1.724 5.026 3.189 7.824 4.346 1.581 8.083 7.31 14.698 14.875 17.526-1.924 30.582-7.394 51.706-12.486 65.291zm12.17-87.341c0-4.705 3.828-8.532 8.532-8.532s8.532 3.828 8.532 8.532-3.828 8.532-8.532 8.532-8.532-3.827-8.532-8.532zm-4.443 108.223c-.246-.127-.335-.313-.366-.414-.043-.137-.011-.198.013-.243 5.093-9.542 13.01-28.4 17.473-59.116 5.252 12.369 12.156 23.791 20.42 34.016v39.687c-7.556-1.726-21.51-5.682-37.54-13.93zm179.854 78.02 6.073 15.239c.137.38.119.682.099.743-1.986 3.389-9.697 8.164-25.385 11.4-15.343 3.165-34.821 4.109-54.843 2.659-29.431-2.132-64.863-10.673-75.639-22.874-1.311-1.484-1.646-3.709-.862-5.686l4.698-10.749c4.167 3.205 9.811 6.15 16.97 8.812 14.415 5.359 33.679 9.103 54.245 10.543 6.08.425 12.073.636 17.89.636 13.862 0 26.715-1.195 37.296-3.519 8.256-1.812 14.74-4.223 19.458-7.204zm-127.314-15.957v-71.912c25.68 23.382 59.754 37.384 96.71 37.384 2.869 0 5.713-.108 8.532-.308v43.219c-11.347 2.583-28.522 4.308-51.524 2.697-25.286-1.769-43.046-6.548-53.718-11.08zm201.435-154.253c0 57.746-46.98 104.726-104.726 104.726-60.326 0-112.077-41.66-125.352-99.924 7.489-3.942 12.61-11.799 12.61-20.834 0-12.976-10.557-23.532-23.532-23.532-8.971 0-16.783 5.048-20.752 12.451-8.012-4.905-12.802-14.219-11.65-24.001 1.414-11.993 12.369-21.449 24.952-21.546h49.655c-1.034 2.647-1.608 5.523-1.608 8.532v16.032c0 26.236 21.345 47.581 47.581 47.581 30.656 0 55.597-24.94 55.597-55.597v-.516h17.064v.516c0 30.656 24.94 55.597 55.597 55.597 8.982 0 17.389-2.504 24.564-6.847zm-56.749-99.116c29.604.475 51.173 8.917 56.432 11.455h-56.312c-10.354 0-19.16 6.724-22.3 16.032h-19.53c-3.139-9.308-11.946-16.032-22.3-16.032h-78.834c13.857-9.452 25.798-23.274 35.44-41.241 10.288-19.17 15.357-38.128 17.475-47.787 12.507.567 42.232 2.9 71.698 12.477 38.394 12.478 62.166 32.174 71.027 58.713-8.874-3.183-26.815-8.202-52.557-8.615-4.131-.087-7.553 3.237-7.619 7.378s3.239 7.553 7.38 7.62zm-109.982 43.519h-2.124c-4.142 0-7.5 3.358-7.5 7.5s3.358 7.5 7.5 7.5h40.081c4.142 0 7.5-3.358 7.5-7.5 0-2.238-.986-4.241-2.54-5.615 1.124-3.316-.203-7.072-3.35-8.892-3.584-2.073-8.173-.85-10.248 2.736-1.524 2.635-4.358 4.271-7.396 4.271-4.705 0-8.532-3.828-8.532-8.532s3.828-8.532 8.532-8.532h24.049c4.705 0 8.532 3.828 8.532 8.532v8.016c0 22.385-18.211 40.597-40.597 40.597-17.965 0-32.581-14.615-32.581-32.581v-16.032c0-4.705 3.828-8.532 8.532-8.532h10.14c-1.034 2.647-1.608 5.523-1.608 8.532s.576 5.884 1.61 8.532zm174.747 7.5c0 17.965-14.616 32.581-32.581 32.581-22.385 0-40.597-18.212-40.597-40.597v-8.016c0-4.705 3.828-8.532 8.532-8.532h2.124c-1.034 2.647-1.608 5.523-1.608 8.532 0 3.764.893 7.321 2.471 10.479-1.514 1.373-2.471 3.348-2.471 5.553 0 4.142 3.358 7.5 7.5 7.5h32.064c4.142 0 7.5-3.358 7.5-7.5 0-2.238-.986-4.241-2.54-5.615 1.124-3.316-.203-7.072-3.35-8.892-3.584-2.073-8.174-.85-10.248 2.736-1.524 2.635-4.358 4.271-7.395 4.271-4.705 0-8.532-3.828-8.532-8.532s3.828-8.532 8.532-8.532h32.064c4.705 0 8.532 3.828 8.532 8.532v16.032zm10.925-29.252c-1.13-1.658-2.469-3.162-3.974-4.48-.707-45.321-30.155-78.724-85.31-96.649-40.742-13.241-80.794-13.394-82.479-13.394-3.697 0-6.843 2.7-7.412 6.353-.039.25-4.044 25.287-17.315 49.857-13.848 25.638-32.133 41.1-54.5 46.157 33.518-44.423 53.153-89.805 54.056-91.913 1.632-3.807-.132-8.216-3.939-9.848s-8.216.132-9.848 3.939c-.232.542-23.246 53.745-60.979 99.915-7.771.849-14.916 3.859-20.747 8.432.351-24.932 2.384-54.646 14.207-79.08 16.565-34.235 48.772-50.877 98.46-50.877v-.008c1.568.001 3.149-.479 4.5-1.492 3.313-2.485 3.985-7.187 1.5-10.5-.962-1.283-2.05-2.532-3.236-3.748 18.77-15.542 64.59-27.404 107.587-13.579 25.356 8.152 55.089 27.191 68.138 71.159-1.342-1.983-2.747-3.932-4.23-5.839-30.593-39.334-68.151-51.051-94.271-53.953-28.251-3.139-49.2 3.013-50.078 3.277-3.962 1.188-6.206 5.358-5.025 9.322 1.181 3.965 5.357 6.221 9.322 5.049.191-.057 19.376-5.608 44.721-2.672 33.556 3.887 61.647 20.099 83.492 48.186 18.149 23.336 23.98 52.391 17.36 86.386z"/></g></svg>